<?xml version="1.0" encoding="UTF-8" standalone="no"?>
<svg
   xmlns:dc="http://purl.org/dc/elements/1.1/"
   xmlns:cc="http://creativecommons.org/ns#"
   xmlns:rdf="http://www.w3.org/1999/02/22-rdf-syntax-ns#"
   xmlns:svg="http://www.w3.org/2000/svg"
   xmlns="http://www.w3.org/2000/svg"
   xmlns:sodipodi="http://sodipodi.sourceforge.net/DTD/sodipodi-0.dtd"
   xmlns:inkscape="http://www.inkscape.org/namespaces/inkscape"
   version="1.1"
   height="50"
   width="50"
   id="svg2"
   inkscape:version="0.48.5 r10040"
   sodipodi:docname="closeyellow.svg"
   inkscape:export-filename="C:\Users\Chris\Desktop\closeyellow.png"
   inkscape:export-xdpi="90"
   inkscape:export-ydpi="90">
  <metadata
     id="metadata10">
    <rdf:RDF>
      <cc:Work
         rdf:about="">
        <dc:format>image/svg+xml</dc:format>
        <dc:type
           rdf:resource="http://purl.org/dc/dcmitype/StillImage" />
        <dc:title />
      </cc:Work>
    </rdf:RDF>
  </metadata>
  <defs
     id="defs8" />
  <sodipodi:namedview
     pagecolor="#ffffff"
     bordercolor="#666666"
     borderopacity="1"
     objecttolerance="10"
     gridtolerance="10"
     guidetolerance="10"
     inkscape:pageopacity="0"
     inkscape:pageshadow="2"
     inkscape:window-width="1920"
     inkscape:window-height="1005"
     id="namedview6"
     showgrid="false"
     inkscape:zoom="6.4082569"
     inkscape:cx="-16.391306"
     inkscape:cy="49.092464"
     inkscape:window-x="-9"
     inkscape:window-y="-9"
     inkscape:window-maximized="1"
     inkscape:current-layer="svg2" />
  <path
     d="m 48.085118,43.68337 c 0,0 -4.410539,4.41263 -4.410539,4.41263 0,0 -19.633066,-19.633066 -19.633066,-19.633066 0,0 -19.6309744,19.633066 -19.6309744,19.633066 C 4.4105386,48.096 0,43.68337 0,43.68337 c 0,0 19.630975,-19.633066 19.630975,-19.633066 C 19.630975,24.050304 0,4.4172383 0,4.4172383 c 0,0 4.4105386,-4.41262986 4.4105386,-4.41262986 0,0 19.6309744,19.63306556 19.6309744,19.63306556 0,0 19.633066,-19.63306556 19.633066,-19.63306556 0,0 4.410539,4.41262986 4.410539,4.41262986 0,0 -19.630975,19.6330657 -19.630975,19.6330657 0,0 19.630975,19.633066 19.630975,19.633066 z"
     id="path4"
     style="fill:#fed000;fill-opacity:1"
     inkscape:connector-curvature="0" />
</svg>
